<mxfile host="app.diagrams.net" modified="2020-12-15T00:38:17.859Z" agent="5.0 (Windows NT 6.3; Win64; x64) AppleWebKit/537.36 (KHTML, like Gecko) Chrome/86.0.4240.193 Safari/537.36" etag="PpG53hLQkXKwiBlNrmvQ" version="14.0.1" type="github">
  <diagram id="W7F-pXb3L-fyUlym3gCN" name="Page-1">
    <mxGraphModel dx="1229" dy="580" grid="1" gridSize="22" guides="1" tooltips="1" connect="1" arrows="1" fold="1" page="1" pageScale="1" pageWidth="2339" pageHeight="3300" background="none" math="0" shadow="0">
      <root>
        <mxCell id="0" />
        <mxCell id="1" parent="0" />
        <mxCell id="Of2m18KN_05nrdPBPuww-5" value="" style="shape=process;whiteSpace=wrap;html=1;backgroundOutline=1;fillColor=#b1ddf0;strokeColor=#10739e;opacity=20;" vertex="1" parent="1">
          <mxGeometry x="264" y="988" width="528" height="60" as="geometry" />
        </mxCell>
        <mxCell id="Of2m18KN_05nrdPBPuww-6" value="" style="shape=datastore;whiteSpace=wrap;html=1;fillColor=#b1ddf0;strokeColor=#10739e;" vertex="1" parent="1">
          <mxGeometry x="330" y="988" width="60" height="60" as="geometry" />
        </mxCell>
        <mxCell id="Of2m18KN_05nrdPBPuww-7" value="" style="shape=datastore;whiteSpace=wrap;html=1;fillColor=#b1ddf0;strokeColor=#10739e;" vertex="1" parent="1">
          <mxGeometry x="498" y="988" width="60" height="60" as="geometry" />
        </mxCell>
        <mxCell id="Of2m18KN_05nrdPBPuww-8" value="" style="shape=datastore;whiteSpace=wrap;html=1;fillColor=#b1ddf0;strokeColor=#10739e;" vertex="1" parent="1">
          <mxGeometry x="660" y="988" width="60" height="60" as="geometry" />
        </mxCell>
      </root>
    </mxGraphModel>
  </diagram>
</mxfile>
